<?xml version="1.0" standalone="no"?>
<!DOCTYPE svg PUBLIC "-//W3C//DTD SVG 20010904//EN"
 "http://www.w3.org/TR/2001/REC-SVG-20010904/DTD/svg10.dtd">
<svg version="1.0" xmlns="http://www.w3.org/2000/svg"
 width="1280.000000pt" height="821.000000pt" viewBox="0 0 1280.000000 821.000000"
 preserveAspectRatio="xMidYMid meet">
<g transform="translate(0.000000,821.000000) scale(0.100000,-0.100000)"
fill="#000000" stroke="none">
<path d="M575 8186 c-44 -12 -104 -35 -134 -51 -68 -38 -152 -121 -193 -193
-17 -31 -58 -83 -91 -116 -68 -68 -110 -147 -137 -254 -19 -75 -20 -149 -20
-3580 l0 -3502 21 -78 c30 -113 66 -178 139 -252 75 -74 142 -111 256 -140 78
-20 116 -20 5897 -20 l5819 0 81 21 c45 11 108 35 140 52 72 38 156 121 199
195 17 31 58 83 91 116 68 68 110 147 137 254 19 75 20 149 20 3580 l0 3502
-21 78 c-30 113 -66 178 -139 252 -75 74 -142 111 -256 140 -79 20 -115 20
-5904 19 l-5825 0 -80 -23z m10630 -695 c-28 -27 -4685 -2853 -4710 -2858 -13
-3 -730 427 -2190 1313 -2685 1629 -2539 1540 -2543 1553 -3 8 1280 11 4729
11 4661 0 4733 0 4714 -19z m945 -3326 c0 -2020 -3 -3115 -10 -3115 -5 0 -292
255 -637 567 -346 312 -1270 1147 -2055 1856 -786 709 -1428 1292 -1428 1297
0 4 6 12 13 18 6 5 822 502 1812 1102 990 601 1908 1159 2040 1240 132 82 246
148 253 149 9 1 12 -628 12 -3114z m-9500 1805 c1081 -656 2018 -1225 2082
-1264 65 -39 118 -76 118 -83 0 -14 -4176 -3793 -4191 -3793 -5 0 -9 1253 -9
3171 0 3015 1 3171 18 3167 9 -3 901 -542 1982 -1198z m7341 -3255 c2028
-1830 2154 -1946 2157 -1980 3 -33 1 -35 -25 -35 -22 0 -66 35 -208 163 -99
90 -1069 966 -2155 1946 -1086 980 -1979 1789 -1985 1797 -7 11 -4 20 14 35
13 10 29 19 36 19 7 0 982 -875 2166 -1945z m-2000 1425 c1688 -1524 2756
-2488 3232 -2918 306 -277 557 -508 557 -513 0 -5 -2070 -9 -5435 -9 -2989 0
-5435 4 -5435 8 0 5 107 105 237 223 130 118 1067 965 2082 1882 1407 1272
1850 1668 1866 1665 11 -3 243 -140 515 -305 272 -165 511 -308 530 -319 44
-23 227 -32 298 -14 29 7 174 88 387 218 187 113 432 261 543 329 129 78 209
120 217 115 7 -4 190 -167 406 -362z"/>
</g>
</svg>
